<?xml version="1.0" encoding="UTF-8" standalone="no"?>
<!-- Created with Inkscape (http://www.inkscape.org/) -->

<svg
   xmlns:dc="http://purl.org/dc/elements/1.1/"
   xmlns:cc="http://creativecommons.org/ns#"
   xmlns:rdf="http://www.w3.org/1999/02/22-rdf-syntax-ns#"
   xmlns:svg="http://www.w3.org/2000/svg"
   xmlns="http://www.w3.org/2000/svg"
   xmlns:xlink="http://www.w3.org/1999/xlink"
   xmlns:sodipodi="http://sodipodi.sourceforge.net/DTD/sodipodi-0.dtd"
   xmlns:inkscape="http://www.inkscape.org/namespaces/inkscape"
   id="svg2"
   height="300"
   width="300"
   version="1.1"
   inkscape:version="0.48.5 r10040"
   sodipodi:docname="interlecto.svg">
  <defs
     id="defs4">
    <filter
       id="filter3840"
       x="-0.13050798"
       y="-0.11105805"
       height="1.2221161"
       width="1.261016"
       inkscape:collect="always"
       color-interpolation-filters="sRGB">
      <feGaussianBlur
         id="feGaussianBlur3842"
         inkscape:collect="always"
         stdDeviation="6.46232" />
    </filter>
  </defs>
  <sodipodi:namedview
     id="base"
     pagecolor="#ffffff"
     bordercolor="#666666"
     borderopacity="1.0"
     inkscape:pageopacity="0.0"
     inkscape:pageshadow="2"
     inkscape:zoom="1"
     inkscape:cx="388.31226"
     inkscape:cy="146.513"
     inkscape:document-units="px"
     inkscape:current-layer="layer1"
     showgrid="false"
     inkscape:window-width="1855"
     inkscape:window-height="1056"
     inkscape:window-x="65"
     inkscape:window-y="24"
     inkscape:window-maximized="1" />
  <metadata
     id="metadata7">
    <rdf:RDF>
      <cc:Work
         rdf:about="">
        <dc:format>image/svg+xml</dc:format>
        <dc:type
           rdf:resource="http://purl.org/dc/dcmitype/StillImage" />
        <dc:title></dc:title>
      </cc:Work>
    </rdf:RDF>
  </metadata>
  <g
     id="layer0"
     style="opacity:0.75"
     transform="translate(5,5)"
     inkscape:groupmode="layer"
     inkscape:label="Capa 0">
    <g
       id="sh-logo"
       style="filter:url(#filter3840)"
       transform="matrix(0.99712,0.07584,-0.07584,0.99712,157,135)">
      <use
         id="sh-point"
         xlink:href="#point"
         x="0"
         y="0"
         height="300"
         width="840" />
      <use
         id="sh-bubble"
         xlink:href="#bubble"
         x="0"
         y="0"
         height="300"
         width="840" />
    </g>
  </g>
  <g
     id="layer1"
     inkscape:label="Capa 1"
     inkscape:groupmode="layer">
    <g
       id="logo"
       transform="matrix(0.99712,0.07584,-0.07584,0.99712,157,135)">
      <g
         id="call"
         style="fill:#3399cc">
        <path
           id="point"
           d="M -50,0 -115,145 0,90 z"
           sodipodi:nodetypes="cccc"
           inkscape:connector-curvature="0" />
        <path
           id="bubble"
           d="M 100,0 C 100,55.228475 55.228475,100 0,100 -55.228475,100 -100,55.228475 -100,0 c 0,-55.228475 44.771525,-100 100,-100 55.228475,0 100,44.771525 100,100 z"
           sodipodi:ry="100"
           sodipodi:rx="100"
           sodipodi:cy="0"
           sodipodi:cx="0"
           sodipodi:type="arc" />
      </g>
      <g
         id="info"
         style="fill:#ffffff">
        <path
           id="dot"
           d="m -30,-60 c 0,12.5 15,20 30,20 15,0 30,-12.5 30,-25 0,-12.5 -15,-20 -30,-20 -15,0 -30,12.5 -30,25 z"
           inkscape:connector-curvature="0"
           sodipodi:nodetypes="zzzzz" />
        <path
           id="body"
           d="m -50,-5 c 10,-10 35,-20 55,-20 15,0 20,10 20,25 l 0,50 c 0,20 15,7.5 20,0 L 55,60 C 47.5,70 35,80 5,80 -15,80 -25,70 -25,55 l 0,-50 c 0,-10 -10,-10 -15,0 z"
           sodipodi:nodetypes="csssccssscc"
           inkscape:connector-curvature="0" />
      </g>
    </g>
  </g>
</svg>
